<svg xmlns="http://www.w3.org/2000/svg" viewBox="0 0 24 24"><path fill="#EEC70E" d="M14.346 18.169c2.428-.961 4.112-3.278 4.112-5.986 0-3.547-2.891-6.424-6.458-6.427h-.005c-3.569 0-6.462 2.876-6.462 6.425 0 2.711 1.689 5.03 4.077 5.973l.044.015a.688.688 0 0 0 .961-.619v-5.37c0-.761.62-1.377 1.385-1.377s1.385.616 1.385 1.377v5.369a.69.69 0 0 0 .966.617l-.005.003z"/><path fill="#EEC70E" d="M12 .25C5.373.25 0 5.592 0 12.181c0 5.504 3.748 10.137 8.845 11.514l.044.012.005.001.059.016.001-.002a1.38 1.38 0 0 0 1.663-1.349c0-.634-.431-1.168-1.018-1.328l-.01-.002c-3.961-1.091-6.821-4.643-6.821-8.86 0-5.069 4.133-9.178 9.231-9.178s9.231 4.109 9.231 9.178c0 4.215-2.858 7.766-6.752 8.843l-.065.015a1.38 1.38 0 0 0-1.028 1.33 1.381 1.381 0 0 0 1.672 1.347l-.009.002.001.002.059-.016.049-.013-.002.002C20.252 22.318 24 17.685 24 12.181 24 5.592 18.627.25 12 .25z"/></svg>